# Wavefront object file BaseModel_rev0
#   created by IRONCAD 26.0
#   at 09:21, 3 18, 2026

g Ba_$p$($c56
v -57 0 -20.5
v -23 0 -20.5
v -23 20 -20.5
v -57 20 -20.5
v 1.81809 20 -0.563849
v 2.49976 20 -1.5367
v 1.99981 20 -1.52961
v 2.28204 20 -0.377429
v 1.27819 20 0.257264
v 1.63424 20 0.608302
v 0.463533 20 0.806853
v -0.500009 20 0.999997
v 0.65651 20 1.26811
v -58.5 20 0.999997
v -0.500009 20 1.5
v -93.5 20 1.5
v -20.1633 20 -26.2653
v -17.8774 20 -26.2821
v -19.022 20 -26.4999
v -19.0184 20 -25.9999
v -18.0645 20 -25.8184
v -19.9694 20 -25.8044
v -16.9022 20 -25.6446
v -21.1291 20 -25.6135
v -17.2518 20 -25.2871
v -20.7742 20 -25.2613
v -16.2433 20 -24.6836
v -21.7737 20 -24.643
v -16.7028 20 -24.4863
v -21.3115 20 -24.4525
v -16.0003 20 -23.544
v -16.5003 20 -23.5367
v -21.5 20 -23.5
v -22 20 -23.5
v -16.6748 20 -22.5816
v -16.2098 20 -22.3979
v -21.5 20 -22
v -63.5 20 -23.5
v -17.2001 20 -21.765
v -21.6142 20 -21.426
v -16.8401 20 -21.418
v -21.9393 20 -20.9393
v -18.2411 20 -20.685
v -22.426 20 -20.6142
v -57.574 20 -20.3858
v -18.5573 20 -20.1925
v -58.0607 20 -20.0607
v -18.6609 20 -19.6165
v -58.3858 20 -19.574
v -18.5362 20 -19.0446
v -58.5 20 -19
v -18.2022 20 -18.5641
v -3.16971 20 -4.07345
v -0.559238 20 -3.99929
v 0.408609 20 -3.82902
v -1.51793 20 -3.78337
v -2.67332 20 -3.75576
v 1.58202 20 -3.65988
v -2.09286 20 -3.65382
v -63.5 20 -3.5
v 1.23606 20 -3.29889
v 2.25374 20 -2.69029
v 1.79526 20 -2.4908
v -93.5 20 -3.5
v -63.5 0 -3.5
v -93.5 0 1.5
v -93.5 0 -3.5
v -58.5 0 0.999997
v -58.5 0 -19
v -63.5 0 -23.5
v -58.3858 0 -19.574
v -58.0607 0 -20.0607
v -57.574 0 -20.3858
v -22.426 0 -20.6142
v -22 0 -23.5
v -21.9393 0 -20.9393
v -21.7737 0 -24.643
v -21.6142 0 -21.426
v -21.5 0 -22
v -21.5 0 -23.5
v -21.3115 0 -24.4525
v -21.1291 0 -25.6135
v -20.7742 0 -25.2613
v -20.1633 0 -26.2653
v -19.9694 0 -25.8044
v -19.022 0 -26.4999
v -19.0184 0 -25.9999
v -18.5362 0 -19.0446
v -18.6609 0 -19.6165
v -18.5573 0 -20.1925
v -18.2411 0 -20.685
v -18.2022 0 -18.5641
v -18.0645 0 -25.8184
v -17.8774 0 -26.2821
v -17.2518 0 -25.2871
v -17.2001 0 -21.765
v -16.9022 0 -25.6446
v -16.8401 0 -21.418
v -16.7028 0 -24.4863
v -16.6748 0 -22.5816
v -16.5003 0 -23.5367
v -16.2433 0 -24.6836
v -16.2098 0 -22.3979
v -16.0003 0 -23.544
v -3.16971 0 -4.07345
v -2.67332 0 -3.75576
v -2.09286 0 -3.65382
v -1.51793 0 -3.78337
v -0.559238 0 -3.99929
v -0.500009 0 0.999997
v -0.500009 0 1.5
v 0.408609 0 -3.82902
v 0.463533 0 0.806853
v 0.65651 0 1.26811
v 1.23606 0 -3.29889
v 1.27819 0 0.257264
v 1.58202 0 -3.65988
v 1.63424 0 0.608302
v 1.79526 0 -2.4908
v 1.81809 0 -0.563849
v 1.99981 0 -1.52961
v 2.25374 0 -2.69029
v 2.28204 0 -0.377429
v 2.49976 0 -1.5367
v -87.3498 7.38459 -3.5
v -86.2125 7.26506 -3.5
v -76.3401 7.95635 -3.5
v -88.3401 7.95635 -3.5
v -77.0122 8.88147 -3.5
v -77.25 10 -3.5
v -89.0123 8.88147 -3.5
v -89.25 10 -3.5
v -74.2125 7.26506 -3.5
v -75.3498 7.38459 -3.5
v -73.125 7.61843 -3.5
v -72.2752 8.38359 -3.5
v -71.8101 9.42824 -3.5
v -71.75 10 -3.5
v -83.8101 9.42824 -3.5
v -83.75 10 -3.5
v -84.2752 8.38359 -3.5
v -85.125 7.61843 -3.5
v -71.8101 10.5718 -3.5
v -83.8101 10.5718 -3.5
v -77.0122 11.1185 -3.5
v -84.2752 11.6164 -3.5
v -72.2752 11.6164 -3.5
v -76.3401 12.0436 -3.5
v -85.125 12.3816 -3.5
v -75.3498 12.6154 -3.5
v -74.2125 12.7349 -3.5
v -86.2125 12.7349 -3.5
v -87.3498 12.6154 -3.5
v -73.125 12.3816 -3.5
v -88.3401 12.0436 -3.5
v -89.0123 11.1185 -3.5
v -83.75 10 1.5
v -83.8101 10.5718 1.5
v -89.0123 8.88147 1.5
v -89.25 10 1.5
v -88.3401 7.95635 1.5
v -87.3498 7.38459 1.5
v -86.2125 7.26506 1.5
v -85.125 7.61843 1.5
v -84.2752 8.38359 1.5
v -83.8101 9.42824 1.5
v -84.2752 11.6164 1.5
v -85.125 12.3816 1.5
v -86.2125 12.7349 1.5
v -87.3498 12.6154 1.5
v -88.3401 12.0436 1.5
v -89.0123 11.1185 1.5
v -71.75 10 1.5
v -71.8101 10.5718 1.5
v -77.0122 8.88147 1.5
v -77.25 10 1.5
v -76.3401 7.95635 1.5
v -75.3498 7.38459 1.5
v -74.2125 7.26506 1.5
v -73.125 7.61843 1.5
v -72.2752 8.38359 1.5
v -71.8101 9.42824 1.5
v -72.2752 11.6164 1.5
v -73.125 12.3816 1.5
v -74.2125 12.7349 1.5
v -75.3498 12.6154 1.5
v -76.3401 12.0436 1.5
v -77.0122 11.1185 1.5
vn 6.12323e-17 -0 1
vn 0 1 0
vn -0 -1 0
vn 1 -0 2.87913e-09
vn 0.92388 -0 0.382683
vn 0.707107 0 0.707107
vn 0.382683 -0 0.92388
vn -1 0 8.88178e-16
vn -1.15648e-16 0 -1
vn -1 0 5.10391e-08
vn -1 3.67394e-16 0
vn -0.978148 -0.207912 0
vn 0.913545 0.406737 0
vn 1 -2.44929e-16 0
vn 0.669131 0.743145 0
vn 0.309017 0.951056 0
vn -0.104528 0.994522 0
vn -0.5 0.866025 0
vn -0.809017 0.587785 0
vn -0.978148 0.207912 0
vn -0.809017 -0.587785 0
vn -0.5 -0.866025 0
vn -0.104528 -0.994522 0
vn 0.309017 -0.951056 0
vn 0.669131 -0.743145 0
vn 0.913545 -0.406737 0
vn -2.33162e-18 0 1
vn 0.385507 0 0.922705
vn 1.83697e-16 0 1
vn 0.711419 0 0.702768
vn 0.927352 0 0.37419
vn 0.999925 0 -0.0122342
vn 0.917919 0 -0.396767
vn 0.694012 0 -0.719964
vn 0.930074 0 0.367373
vn 0.719964 0 0.694012
vn 0.999892 0 -0.0146809
vn 0.918887 0 -0.39452
vn 0.699278 0 -0.71485
vn 0.37419 0 -0.927352
vn -0.00734063 0 -0.999973
vn -0.387764 0 -0.921759
vn -0.709697 0 -0.704507
vn -0.92458 0 -0.380987
vn 0 0 -1
vn 0.0236918 -0 0.999719
vn 0.407171 0 0.913352
vn -0.363449 0 0.931614
vn -0.69443 0 0.71956
vn -0.918111 0 0.396322
vn -0.99993 0 0.0118467
vn -0.927243 0 -0.37446
vn -0.711283 0 -0.702906
vn -0.385418 0 -0.922742
vn -1.83697e-16 0 -1
vn 1 0 2.09798e-15
vn 0.92458 -0 0.380987
vn 0.709697 -0 0.704507
vn 0.387764 -0 0.921759
vn 0.00734061 -0 0.999973
vn -0.37419 0 0.927352
vn -0.699278 0 0.71485
vn -0.918887 0 0.39452
vn -0.999892 0 0.0146808
vn -0.930074 0 -0.367373
vn -0.719964 0 -0.694012
vn -0.719964 0 -0.694012
vn -0.930746 0 -0.365665
vn -0.999832 0 0.0183507
vn -0.916701 0 0.399573
vn -0.694012 0 0.719964
vn -0.363087 0 0.931755
vn 0.0238855 0 0.999715
f 1//1 2//1 3//1 4//1
f 5//2 6//2 7//2
f 8//2 6//2 5//2
f 9//2 8//2 5//2
f 10//2 8//2 9//2
f 11//2 10//2 9//2
f 12//2 10//2 11//2
f 13//2 12//2 14//2
f 13//2 10//2 12//2
f 15//2 13//2 14//2
f 16//2 15//2 14//2
f 17//2 18//2 19//2
f 20//2 18//2 17//2
f 21//2 18//2 20//2
f 22//2 20//2 17//2
f 23//2 18//2 21//2
f 24//2 22//2 17//2
f 25//2 23//2 21//2
f 26//2 22//2 24//2
f 27//2 23//2 25//2
f 28//2 26//2 24//2
f 29//2 27//2 25//2
f 30//2 26//2 28//2
f 31//2 27//2 29//2
f 32//2 31//2 29//2
f 33//2 30//2 28//2
f 34//2 33//2 28//2
f 35//2 31//2 32//2
f 36//2 31//2 35//2
f 37//2 34//2 38//2
f 37//2 33//2 34//2
f 39//2 36//2 35//2
f 40//2 37//2 38//2
f 41//2 36//2 39//2
f 42//2 40//2 38//2
f 43//2 41//2 39//2
f 44//2 42//2 38//2
f 3//2 44//2 38//2
f 4//2 3//2 38//2
f 45//2 4//2 38//2
f 46//2 41//2 43//2
f 47//2 45//2 38//2
f 48//2 41//2 46//2
f 49//2 47//2 38//2
f 50//2 41//2 48//2
f 51//2 49//2 38//2
f 52//2 41//2 50//2
f 53//2 41//2 52//2
f 54//2 41//2 53//2
f 55//2 41//2 54//2
f 56//2 54//2 53//2
f 57//2 56//2 53//2
f 58//2 41//2 55//2
f 59//2 56//2 57//2
f 60//2 51//2 38//2
f 61//2 58//2 55//2
f 62//2 58//2 61//2
f 63//2 62//2 61//2
f 6//2 62//2 63//2
f 7//2 6//2 63//2
f 14//2 60//2 64//2
f 14//2 51//2 60//2
f 16//2 14//2 64//2
f 65//3 66//3 67//3
f 68//3 66//3 65//3
f 69//3 68//3 65//3
f 69//3 65//3 70//3
f 71//3 69//3 70//3
f 72//3 71//3 70//3
f 73//3 72//3 70//3
f 1//3 73//3 70//3
f 2//3 1//3 70//3
f 74//3 2//3 70//3
f 75//3 74//3 70//3
f 76//3 74//3 75//3
f 77//3 76//3 75//3
f 78//3 76//3 77//3
f 79//3 78//3 77//3
f 80//3 79//3 77//3
f 81//3 80//3 77//3
f 82//3 81//3 77//3
f 83//3 81//3 82//3
f 84//3 83//3 82//3
f 85//3 83//3 84//3
f 86//3 85//3 84//3
f 87//3 85//3 86//3
f 88//3 89//3 90//3
f 91//3 88//3 90//3
f 92//3 88//3 91//3
f 93//3 87//3 86//3
f 94//3 93//3 86//3
f 95//3 93//3 94//3
f 96//3 92//3 91//3
f 97//3 95//3 94//3
f 98//3 92//3 96//3
f 99//3 95//3 97//3
f 100//3 98//3 96//3
f 101//3 99//3 97//3
f 101//3 98//3 100//3
f 102//3 98//3 101//3
f 102//3 101//3 97//3
f 103//3 98//3 102//3
f 104//3 103//3 102//3
f 105//3 92//3 98//3
f 106//3 105//3 98//3
f 107//3 106//3 98//3
f 108//3 107//3 98//3
f 109//3 108//3 98//3
f 110//3 66//3 68//3
f 111//3 66//3 110//3
f 112//3 109//3 98//3
f 113//3 111//3 110//3
f 114//3 111//3 113//3
f 115//3 112//3 98//3
f 116//3 114//3 113//3
f 117//3 115//3 98//3
f 118//3 114//3 116//3
f 119//3 115//3 117//3
f 120//3 118//3 116//3
f 121//3 119//3 117//3
f 121//3 118//3 120//3
f 122//3 118//3 121//3
f 122//3 121//3 117//3
f 123//3 118//3 122//3
f 124//3 123//3 122//3
f 68//4 69//4 51//4 14//4
f 71//5 49//5 51//4 69//4
f 72//6 47//6 49//5 71//5
f 73//7 45//7 47//6 72//6
f 1//1 4//1 45//7 73//7
f 65//8 60//8 38//8 70//8
f 125//9 126//9 67//9
f 127//9 67//9 126//9
f 128//9 125//9 67//9
f 129//9 127//9 126//9
f 130//9 129//9 126//9
f 131//9 128//9 67//9
f 132//9 131//9 67//9
f 64//9 132//9 67//9
f 133//9 65//9 67//9
f 134//9 133//9 67//9
f 135//9 65//9 133//9
f 127//9 134//9 67//9
f 136//9 65//9 135//9
f 137//9 65//9 136//9
f 138//9 65//9 137//9
f 130//9 139//9 140//9
f 130//9 141//9 139//9
f 130//9 142//9 141//9
f 130//9 126//9 142//9
f 143//9 65//9 138//9
f 144//9 130//9 140//9
f 145//9 130//9 144//9
f 146//9 145//9 144//9
f 147//9 65//9 143//9
f 148//9 145//9 146//9
f 149//9 148//9 146//9
f 150//9 148//9 149//9
f 151//9 150//9 149//9
f 152//9 151//9 149//9
f 60//9 152//9 153//9
f 60//9 151//9 152//9
f 60//9 154//9 151//9
f 60//9 147//9 154//9
f 60//9 65//9 147//9
f 64//9 60//9 153//9
f 64//9 153//9 155//9
f 64//9 155//9 156//9
f 64//9 156//9 132//9
f 67//10 66//10 16//10 64//10
f 157//11 158//12 144//12 140//11
f 159//13 131//13 132//14 160//14
f 161//15 128//15 131//13 159//13
f 162//16 125//16 128//15 161//15
f 163//17 126//17 125//16 162//16
f 164//18 142//18 126//17 163//17
f 165//19 141//19 142//18 164//18
f 166//20 139//20 141//19 165//19
f 140//11 139//20 166//20 157//11
f 167//21 146//21 144//12 158//12
f 168//22 149//22 146//21 167//21
f 169//23 152//23 149//22 168//22
f 170//24 153//24 152//23 169//23
f 171//25 155//25 153//24 170//24
f 172//26 156//26 155//25 171//25
f 160//14 132//14 156//26 172//26
f 173//11 174//12 143//12 138//11
f 175//13 129//13 130//14 176//14
f 177//15 127//15 129//13 175//13
f 178//16 134//16 127//15 177//15
f 179//17 133//17 134//16 178//16
f 180//18 135//18 133//17 179//17
f 181//19 136//19 135//18 180//18
f 182//20 137//20 136//19 181//19
f 138//11 137//20 182//20 173//11
f 183//21 147//21 143//12 174//12
f 184//22 154//22 147//21 183//21
f 185//23 151//23 154//22 184//22
f 186//24 150//24 151//23 185//23
f 187//25 148//25 150//24 186//24
f 188//26 145//26 148//25 187//25
f 176//14 130//14 145//26 188//26
f 162//27 161//27 66//27
f 163//27 162//27 66//27
f 164//27 163//27 66//27
f 165//27 164//27 66//27
f 178//27 157//27 166//27
f 178//27 166//27 165//27
f 178//27 165//27 66//27
f 179//27 178//27 66//27
f 180//27 179//27 66//27
f 15//27 173//27 182//27
f 15//27 182//27 181//27
f 15//27 181//27 180//27
f 15//27 180//27 66//27
f 111//27 15//27 66//27
f 160//27 16//27 66//27
f 172//27 16//27 160//27
f 159//27 160//27 66//27
f 171//27 16//27 172//27
f 161//27 159//27 66//27
f 170//27 16//27 171//27
f 169//27 16//27 170//27
f 168//27 16//27 169//27
f 167//27 16//27 168//27
f 176//27 158//27 157//27
f 176//27 167//27 158//27
f 176//27 16//27 167//27
f 175//27 176//27 157//27
f 188//27 16//27 176//27
f 177//27 175//27 157//27
f 187//27 16//27 188//27
f 186//27 16//27 187//27
f 178//27 177//27 157//27
f 185//27 16//27 186//27
f 184//27 16//27 185//27
f 15//27 174//27 173//27
f 15//27 183//27 174//27
f 15//27 184//27 183//27
f 15//27 16//27 184//27
f 114//28 13//28 15//29 111//29
f 118//30 10//30 13//28 114//28
f 123//31 8//31 10//30 118//30
f 124//32 6//32 8//31 123//31
f 122//33 62//33 6//32 124//32
f 117//34 58//34 62//33 122//33
f 117//34 98//34 41//34 58//34
f 103//35 36//35 41//36 98//36
f 104//37 31//37 36//35 103//35
f 102//38 27//38 31//37 104//37
f 97//39 23//39 27//38 102//38
f 94//40 18//40 23//39 97//39
f 86//41 19//41 18//40 94//40
f 84//42 17//42 19//41 86//41
f 82//43 24//43 17//42 84//42
f 77//44 28//44 24//43 82//43
f 75//8 34//8 28//44 77//44
f 70//45 38//45 34//45 75//45
f 109//46 54//46 56//47 108//47
f 112//48 55//48 54//46 109//46
f 115//49 61//49 55//48 112//48
f 119//50 63//50 61//49 115//49
f 121//51 7//51 63//50 119//50
f 120//52 5//52 7//51 121//51
f 116//53 9//53 5//52 120//52
f 113//54 11//54 9//53 116//53
f 110//55 12//55 11//54 113//54
f 74//7 44//7 3//1 2//1
f 76//6 42//6 44//7 74//7
f 78//5 40//5 42//6 76//6
f 79//56 37//56 40//5 78//5
f 37//56 79//56 80//56 33//56
f 81//57 30//57 33//56 80//56
f 83//58 26//58 30//57 81//57
f 85//59 22//59 26//58 83//58
f 87//60 20//60 22//59 85//59
f 93//61 21//61 20//60 87//60
f 95//62 25//62 21//61 93//61
f 99//63 29//63 25//62 95//62
f 101//64 32//64 29//63 99//63
f 100//65 35//65 32//64 101//64
f 96//66 39//66 35//65 100//65
f 96//67 91//67 43//67 39//67
f 90//68 46//68 43//67 91//67
f 89//69 48//69 46//68 90//68
f 88//70 50//70 48//69 89//69
f 92//71 52//71 50//70 88//70
f 92//71 105//71 53//71 52//71
f 106//72 57//72 53//71 105//71
f 107//73 59//73 57//72 106//72
f 108//47 56//47 59//73 107//73
f 110//55 68//55 14//55 12//55
# statistics: 292 polygons, 188 vertices
